<svg width="64" height="56" viewBox="0 0 64 56" fill="none" xmlns="http://www.w3.org/2000/svg">
<g clip-path="url(#clip0_97_910)">
<path d="M48.9266 38.0307C49.0363 38.1988 49.0947 38.3952 49.0947 38.596C49.0947 38.7967 49.0363 38.9931 48.9266 39.1612C48.4669 39.443 47.987 39.6905 47.4909 39.9017C47.2026 39.9582 46.5187 40.2013 46.3321 39.9017C46.1456 39.6021 45.9139 39.3364 45.9986 38.9351C46.0834 38.5338 46.0608 38.3699 46.3547 38.2342C46.7754 38.0946 47.2038 37.9794 47.6379 37.8894C48.0725 37.8579 48.5092 37.9058 48.9266 38.0307Z" fill="white"/>
<path d="M42.0476 37.8724C42.1152 37.7289 42.2115 37.6007 42.3305 37.4957C42.4495 37.3907 42.5887 37.3112 42.7396 37.2619C42.8905 37.2127 43.0498 37.1948 43.2078 37.2094C43.3658 37.224 43.5192 37.2707 43.6585 37.3467C44.4046 37.7311 43.9864 38.6242 43.7885 39.229C43.5243 39.9644 43.2127 40.6818 42.8559 41.377C42.4489 42.1457 42.1041 42.9427 41.7254 43.7171C41.5501 44.0619 41.3693 44.401 41.1997 44.7459C41.0726 45.0583 40.8799 45.3397 40.6344 45.5711C40.5021 45.6718 40.3508 45.7447 40.1896 45.7854C40.0284 45.826 39.8606 45.8337 39.6964 45.8078C39.5321 45.7819 39.3748 45.7231 39.2339 45.6348C39.093 45.5465 38.9714 45.4306 38.8765 45.2941C38.0965 43.9319 37.5029 42.4679 36.802 41.0548C36.3951 41.9931 35.8976 42.9031 35.4454 43.8132C35.1006 44.5084 34.7163 45.5089 33.9023 45.769C32.7379 46.1194 32.4948 44.9098 32.2066 44.1128C31.8674 43.1575 31.3983 42.2474 30.98 41.343C30.5617 40.4386 30.0077 39.4382 29.4764 38.5168C29.2051 38.0646 29.1655 37.6067 29.6742 37.3354C29.8773 37.2221 30.1084 37.1688 30.3406 37.1819C30.5728 37.1949 30.7965 37.2736 30.9856 37.4089C31.3255 37.6954 31.5879 38.0628 31.7487 38.4772C31.9635 38.9181 32.1896 39.359 32.4044 39.7999C32.8509 40.7778 33.354 41.7387 33.7723 42.7279C34.306 41.7972 34.7653 40.8257 35.1459 39.8225C35.3267 39.359 35.4681 38.8729 35.6433 38.4151C35.7441 38.2064 35.9066 38.0337 36.1088 37.9205C36.311 37.8072 36.5432 37.7589 36.7738 37.782C36.9841 37.7823 37.1895 37.8448 37.3645 37.9614C37.5395 38.078 37.6761 38.2437 37.7573 38.4377C37.9947 38.8899 38.2152 39.359 38.4413 39.8225C38.9443 40.8795 39.4191 41.9535 39.9561 42.9992C40.3518 42.14 40.7362 41.3035 41.1262 40.4217C41.5363 39.607 41.8512 38.7479 42.0645 37.8611" fill="#FBA200"/>
<path d="M54.9187 44.548C55.207 44.7458 55.484 45.1471 55.2974 45.5032C55.1839 45.6387 55.0374 45.7426 54.8721 45.805C54.7068 45.8673 54.5281 45.8861 54.3535 45.8594C53.7882 45.8594 52.7029 45.5428 52.7029 44.8363V38.1776C52.7029 37.7989 53.1269 37.6124 53.4321 37.5219C53.6113 37.4777 53.7979 37.4725 53.9793 37.5066C54.1607 37.5407 54.3326 37.6134 54.4835 37.7198C54.8283 37.9402 54.7718 38.2285 54.7718 38.5846V39.9412C54.7718 40.8286 54.7718 41.7104 54.7718 42.5979C54.7718 42.9992 54.7718 43.4062 54.7718 43.8188C54.7718 44.011 54.6417 44.5254 54.9187 44.548Z" fill="#FBA200"/>
<path d="M59.678 45.5033C59.5279 45.6287 59.3507 45.7175 59.1604 45.7627C58.9701 45.8078 58.7718 45.808 58.5814 45.7633C58.4043 45.7226 58.2434 45.6298 58.1194 45.4968C57.9955 45.3638 57.9143 45.1967 57.8862 45.0172V41.8574C57.4057 41.8574 56.4504 41.3939 56.9422 40.7778C57.0483 40.6647 57.176 40.5739 57.3177 40.5108C57.4595 40.4477 57.6124 40.4136 57.7675 40.4104C57.9596 40.4104 57.8692 40.2012 57.8579 40.043C57.8466 39.8847 57.8579 39.636 57.8579 39.4269C57.9483 37.9289 59.158 37.2054 60.5485 37.1659C61.2659 37.1161 61.9848 37.2382 62.6455 37.522C62.9225 37.6463 63.2108 37.8272 63.2899 38.1437C63.3045 38.3092 63.2579 38.4742 63.1589 38.6075C63.06 38.7409 62.9155 38.8333 62.7529 38.8673C62.0125 39.099 61.3963 38.5733 60.6615 38.5903C59.7458 38.5903 59.955 39.783 59.955 40.3821C60.4539 40.3568 60.9539 40.3568 61.4529 40.3821C61.8768 40.3821 62.476 40.4839 62.6229 40.9474C62.9338 42.0383 60.4693 41.8518 59.955 41.8518V44.7119C59.9815 44.86 59.9701 45.0123 59.9216 45.1547C59.8732 45.2971 59.7893 45.4248 59.678 45.5259" fill="#FBA200"/>
<path d="M48.3332 38.8786C48.1438 38.8827 47.9573 38.9265 47.7859 39.0074C47.6145 39.0882 47.462 39.2042 47.3384 39.3478C47.0162 39.6643 46.6996 39.7547 46.4283 39.1499C46.157 38.5451 46.8579 38.4321 48.1241 38.1551C49.3902 37.8781 48.6893 38.8786 48.3558 38.8786H48.3332ZM42.3698 25.2278C42.2398 25.6122 41.9233 26.9236 41.9233 26.9236C41.8382 25.9155 41.588 24.9282 41.1828 24.0013C40.7261 23.0209 40.3316 22.0127 40.0014 20.9828C39.8373 20.4329 39.7591 19.8609 39.7697 19.2871C39.7697 18.8688 40.9002 18.9366 41.9459 19.1118C42.266 19.1792 42.569 19.3112 42.8363 19.4997C43.1036 19.6883 43.3295 19.9294 43.5003 20.2084C43.5003 20.2084 43.1838 21.305 43.0368 21.9042C42.8899 22.5033 42.7316 23.3908 42.7316 23.3908C42.8241 23.3767 42.9185 23.3968 42.9973 23.4473C43.0352 23.4663 43.0678 23.4942 43.0925 23.5287C43.1171 23.5632 43.1329 23.6031 43.1386 23.6451L43.8564 23.2438C44.0091 23.1534 44.1447 23.1534 44.5008 23.3908C44.8569 23.6282 45.8348 24.3008 46.1231 24.5213C46.4114 24.7417 46.6883 25.3522 46.1231 25.29C45.5434 25.2325 44.9583 25.263 44.3878 25.3805C43.7886 25.4992 43.4664 25.7027 43.3308 25.7027C43.1951 25.7027 43.1386 25.3522 42.9068 25.2674C42.6751 25.1826 42.4716 24.917 42.3416 25.2674L42.3698 25.2278ZM43.1386 26.7031C42.8673 27.0649 42.9464 26.0305 42.9464 26.0305L43.5116 26.0588C43.4463 26.3002 43.322 26.5216 43.1499 26.7031H43.1386ZM35.4455 26.9179C34.8592 26.2641 34.4181 25.4936 34.1511 24.6569C34.1256 24.5596 34.0724 24.4717 33.9979 24.404C33.9234 24.3363 33.8309 24.2917 33.7316 24.2756C33.6322 24.2594 33.5304 24.2724 33.4383 24.313C33.3462 24.3536 33.2679 24.4201 33.2128 24.5043C32.9019 24.883 32.9528 24.9226 31.9523 24.8604C31.587 24.8001 31.2124 24.8304 30.8616 24.9486C30.5107 25.0669 30.1942 25.2695 29.94 25.5387C29.4878 26.0418 29.4878 25.9796 29.4878 25.9796C28.6938 25.7661 27.8879 25.6 27.0742 25.4822C25.9437 25.3296 18.4937 25.6913 18.4937 25.6913C21.0039 23.8158 24.0323 22.7616 27.1646 22.6729C29.1147 22.5768 30.5561 22.2829 31.421 22.6447C31.6465 22.7505 31.8925 22.8054 32.1416 22.8054C32.3908 22.8054 32.6368 22.7505 32.8623 22.6447C32.8623 22.6447 32.2067 21.5142 31.8562 20.9489C31.5057 20.3837 31.0931 19.7393 31.0931 19.7393C31.4508 19.4173 31.8704 19.1716 32.3261 19.0171C32.7819 18.8626 33.2644 18.8025 33.7441 18.8405C35.3664 18.9931 35.9203 20.4176 36.3047 21.859C36.6891 23.3003 37.0678 24.8491 37.1808 25.0583C37.2939 25.2674 37.13 25.9683 37.13 26.6297C37.1637 27.2997 37.2316 27.9675 37.3335 28.6306C36.6149 28.1553 35.9774 27.5675 35.4455 26.8897V26.9179ZM31.664 26.5675C31.1892 26.5675 30.9857 25.8609 30.9857 25.8609L31.9919 25.6744C32.0722 25.8425 32.1274 26.0215 32.1558 26.2057C32.1558 26.3809 32.1558 26.5675 31.664 26.5675ZM17.3462 9.76262C16.9639 10.1254 16.6533 10.5568 16.4305 11.0344C16.0518 11.6562 14.6952 13.0693 14.8422 12.3571C14.9892 11.6449 16.3118 9.05606 16.9336 7.39988C17.4305 6.06416 18.1054 4.80166 18.9403 3.64662C19.5055 2.81571 19.9916 1.63434 20.5738 3.26226C21.2666 5.25755 21.8088 7.30193 22.1961 9.37825C22.6935 11.8597 23.0496 14.7368 23.0496 14.7368C23.0496 14.7368 21.2012 12.6341 20.3082 11.4753C19.7351 10.7327 19.0873 10.0508 18.375 9.44043C18.0867 9.17476 17.9624 9.1465 17.3462 9.76262ZM51.476 40.1222C51.4193 39.6283 51.2717 39.1492 51.0408 38.709C50.6677 37.8159 48.0902 33.7575 47.5249 32.9435C46.8056 32.0276 45.9651 31.2137 45.0265 30.5242C44.5971 30.1708 44.1067 29.8988 43.5795 29.7216L42.7768 28.0823C42.7768 28.0823 43.2064 27.7884 43.5569 27.5171C43.8714 27.2579 44.0739 26.8874 44.1221 26.4827C44.1956 26.0531 44.286 25.8214 44.5856 26.6692C44.8852 27.5171 45.2922 28.5289 45.1509 28.7606C45.0699 28.8823 44.9729 28.9926 44.8626 29.0885L47.0444 31.4286C47.0444 31.4286 48.5084 25.7761 48.7402 24.9904C48.9719 24.2047 48.9211 23.9165 48.1297 22.3281C47.3384 20.7398 46.0327 18.3035 45.247 16.6756C44.4613 15.0477 43.4382 13.1711 43.2912 12.9958C43.1442 12.8206 43.5342 11.1305 43.9356 9.48C44.3369 7.82947 44.9417 5.79457 44.9417 5.79457C45.2685 7.59814 45.4875 9.41959 45.5974 11.2492C45.6209 12.4195 45.5319 13.5892 45.3317 14.7425C45.2017 15.189 45.1509 15.3077 45.1509 15.3077L47.1631 17.2691C47.3984 15.0818 47.4305 12.8773 47.2592 10.684C46.9201 7.85773 46.4622 5.50064 45.8348 4.18361C45.2074 2.86658 44.8061 2.13741 43.8112 3.17181C42.545 4.4994 41.4093 5.94554 40.4197 7.49032C39.9223 8.45124 39.4588 9.51391 39.2101 9.58174C38.9614 9.64957 36.8643 8.88083 35.5699 8.89779C34.2755 8.91475 30.3357 8.50212 29.1147 8.38341C27.8801 8.28496 26.6388 8.45266 25.4745 8.87518C25.4745 8.87518 24.2027 6.19025 23.6488 5.12758C23.0948 4.06491 24.0784 5.69283 22.6426 3.17181C21.2069 0.650804 20.3816 -1.64411 18.5333 1.59477C16.6849 4.83365 12.4851 8.19123 9.4045 18.637C8.33949 21.9338 6.94574 25.1152 5.24426 28.1332C4.54335 29.3372 2.16931 37.669 1.55884 42.4736C0.93141 47.6287 -0.0747335 53.9369 0.00440139 55.7457L9.48363 51.5572C7.477 46.6734 6.81 43.3158 7.1548 38.6073C7.1548 36.8041 8.85055 23.9108 14.113 18.1396C10.3767 29.829 14.6331 30.1342 15.0909 29.9477C25.7232 25.8214 34.0889 28.2067 34.9933 28.7098C35.8977 29.2128 38.577 30.6768 40.0806 32.0504C41.5841 33.424 41.9459 34.3679 43.2121 34.3679C44.8018 34.4575 46.3366 34.9815 47.6493 35.8828C48.333 36.2522 48.9064 36.7964 49.3111 37.4598C48.9615 37.2772 48.5749 37.1767 48.1806 37.1659C47.6718 37.1453 47.1661 37.2542 46.7109 37.4824C46.3812 37.6712 46.0739 37.8968 45.7952 38.1551C45.526 38.452 45.2803 38.7696 45.0604 39.1047C44.8748 39.3912 44.7195 39.6962 44.5969 40.0148C44.4597 40.3332 44.3482 40.6621 44.2634 40.9983V41.0944C44.2069 41.4053 44.1673 41.7105 44.1391 42.0384C44.1199 42.3608 44.1466 42.6843 44.2182 42.9993C44.2778 43.2927 44.3688 43.5788 44.4895 43.8528C44.6044 44.1338 44.7565 44.398 44.9417 44.6385C45.1056 44.8499 45.2955 45.0398 45.507 45.2038C45.7191 45.3753 45.9505 45.5213 46.1966 45.639C46.7144 45.92 47.3133 46.0138 47.8923 45.9047C48.4652 45.7907 49.0056 45.5513 49.475 45.2038C49.9599 44.8378 50.3753 44.3879 50.7016 43.8754C51.0307 43.3893 51.2682 42.8472 51.4025 42.2758C51.476 41.9225 51.512 41.5626 51.5099 41.2018C51.5099 40.8513 51.4647 40.4896 51.4138 40.0713L51.476 40.1222Z" fill="#231F20"/>
<path d="M16.504 55C16.4187 55 16.3493 54.976 16.296 54.928C16.248 54.88 16.2187 54.8213 16.208 54.752L15.296 49.624C15.2907 49.6133 15.288 49.6027 15.288 49.592C15.288 49.5813 15.288 49.5733 15.288 49.568C15.288 49.5253 15.304 49.488 15.336 49.456C15.368 49.4187 15.408 49.4 15.456 49.4H16.296C16.4347 49.4 16.512 49.456 16.528 49.568L17.128 52.952L17.776 50.848C17.792 50.8053 17.8187 50.76 17.856 50.712C17.8933 50.664 17.9547 50.64 18.04 50.64H18.544C18.6293 50.64 18.6907 50.664 18.728 50.712C18.7653 50.76 18.7893 50.8053 18.8 50.848L19.456 52.944L20.048 49.568C20.064 49.456 20.144 49.4 20.288 49.4H21.128C21.176 49.4 21.216 49.4187 21.248 49.456C21.28 49.488 21.296 49.5253 21.296 49.568C21.296 49.5733 21.296 49.5813 21.296 49.592C21.296 49.6027 21.2933 49.6133 21.288 49.624L20.376 54.752C20.3653 54.8213 20.3333 54.88 20.28 54.928C20.232 54.976 20.1653 55 20.08 55H19.432C19.3467 55 19.28 54.9787 19.232 54.936C19.1893 54.888 19.16 54.84 19.144 54.792L18.288 52.312L17.44 54.792C17.424 54.84 17.392 54.888 17.344 54.936C17.3013 54.9787 17.2347 55 17.144 55H16.504ZM22.3779 55C22.3193 55 22.2713 54.9813 22.2339 54.944C22.1966 54.9067 22.1779 54.8587 22.1779 54.8V49.6C22.1779 49.5413 22.1966 49.4933 22.2339 49.456C22.2713 49.4187 22.3193 49.4 22.3779 49.4H26.0019C26.0606 49.4 26.1086 49.4187 26.1459 49.456C26.1833 49.4933 26.2019 49.5413 26.2019 49.6V50.24C26.2019 50.2933 26.1833 50.3387 26.1459 50.376C26.1086 50.4133 26.0606 50.432 26.0019 50.432H23.4099V51.688H25.8259C25.8846 51.688 25.9326 51.7067 25.9699 51.744C26.0073 51.7813 26.0259 51.8293 26.0259 51.888V52.48C26.0259 52.5333 26.0073 52.5787 25.9699 52.616C25.9326 52.6533 25.8846 52.672 25.8259 52.672H23.4099V53.968H26.0659C26.1246 53.968 26.1726 53.9867 26.2099 54.024C26.2473 54.0613 26.2659 54.1093 26.2659 54.168V54.8C26.2659 54.8587 26.2473 54.9067 26.2099 54.944C26.1726 54.9813 26.1246 55 26.0659 55H22.3779ZM27.417 55C27.3583 55 27.3103 54.9813 27.273 54.944C27.2357 54.9067 27.217 54.8587 27.217 54.8V49.6C27.217 49.5413 27.2357 49.4933 27.273 49.456C27.3103 49.4187 27.3583 49.4 27.417 49.4H29.793C30.2357 49.4 30.5983 49.464 30.881 49.592C31.1637 49.72 31.3717 49.9013 31.505 50.136C31.6437 50.3707 31.713 50.6453 31.713 50.96C31.713 51.1573 31.6757 51.3307 31.601 51.48C31.5317 51.6293 31.4437 51.752 31.337 51.848C31.2357 51.944 31.137 52.016 31.041 52.064C31.249 52.16 31.4303 52.32 31.585 52.544C31.745 52.7627 31.825 53.024 31.825 53.328C31.825 53.664 31.7503 53.9573 31.601 54.208C31.4517 54.4587 31.2303 54.6533 30.937 54.792C30.6437 54.9307 30.2863 55 29.865 55H27.417ZM28.489 54.064H29.713C29.9743 54.064 30.1717 53.992 30.305 53.848C30.4383 53.6987 30.505 53.5227 30.505 53.32C30.505 53.112 30.4357 52.9387 30.297 52.8C30.1637 52.656 29.969 52.584 29.713 52.584H28.489V54.064ZM28.489 51.664H29.641C29.8917 51.664 30.0783 51.6027 30.201 51.48C30.329 51.352 30.393 51.1893 30.393 50.992C30.393 50.7947 30.329 50.6373 30.201 50.52C30.0783 50.3973 29.8917 50.336 29.641 50.336H28.489V51.664ZM36.5611 55.08C36.0491 55.08 35.6198 55.0053 35.2731 54.856C34.9318 54.7067 34.6731 54.512 34.4971 54.272C34.3211 54.032 34.2278 53.776 34.2171 53.504C34.2171 53.4613 34.2331 53.424 34.2651 53.392C34.2971 53.3547 34.3371 53.336 34.3851 53.336H35.2411C35.3105 53.336 35.3638 53.352 35.4011 53.384C35.4385 53.4107 35.4731 53.4453 35.5051 53.488C35.5425 53.5787 35.6011 53.6667 35.6811 53.752C35.7665 53.8373 35.8811 53.9093 36.0251 53.968C36.1691 54.0213 36.3478 54.048 36.5611 54.048C36.9078 54.048 37.1665 53.992 37.3371 53.88C37.5131 53.768 37.6011 53.616 37.6011 53.424C37.6011 53.2853 37.5531 53.1733 37.4571 53.088C37.3665 53.0027 37.2198 52.9253 37.0171 52.856C36.8198 52.7867 36.5558 52.712 36.2251 52.632C35.8251 52.5467 35.4838 52.4373 35.2011 52.304C34.9238 52.1653 34.7131 51.9893 34.5691 51.776C34.4305 51.5573 34.3611 51.288 34.3611 50.968C34.3611 50.648 34.4491 50.3653 34.6251 50.12C34.8011 49.8693 35.0491 49.6747 35.3691 49.536C35.6891 49.392 36.0705 49.32 36.5131 49.32C36.8705 49.32 37.1851 49.368 37.4571 49.464C37.7345 49.56 37.9638 49.6853 38.1451 49.84C38.3318 49.9947 38.4731 50.16 38.5691 50.336C38.6651 50.512 38.7158 50.6827 38.7211 50.848C38.7211 50.8907 38.7051 50.9307 38.6731 50.968C38.6411 51 38.6011 51.016 38.5531 51.016H37.6571C37.6038 51.016 37.5558 51.0053 37.5131 50.984C37.4705 50.9627 37.4358 50.9253 37.4091 50.872C37.3771 50.7333 37.2811 50.6133 37.1211 50.512C36.9665 50.4053 36.7638 50.352 36.5131 50.352C36.2518 50.352 36.0438 50.4 35.8891 50.496C35.7398 50.592 35.6651 50.7387 35.6651 50.936C35.6651 51.064 35.7025 51.1733 35.7771 51.264C35.8571 51.3493 35.9878 51.4267 36.1691 51.496C36.3558 51.56 36.6011 51.632 36.9051 51.712C37.3745 51.808 37.7558 51.9227 38.0491 52.056C38.3425 52.1893 38.5585 52.3627 38.6971 52.576C38.8358 52.784 38.9051 53.048 38.9051 53.368C38.9051 53.7253 38.8038 54.032 38.6011 54.288C38.4038 54.544 38.1291 54.7413 37.7771 54.88C37.4305 55.0133 37.0251 55.08 36.5611 55.08ZM41.1412 55C41.0825 55 41.0345 54.9813 40.9972 54.944C40.9599 54.9067 40.9412 54.8587 40.9412 54.8V50.512H39.4852C39.4319 50.512 39.3865 50.4933 39.3492 50.456C39.3119 50.4187 39.2932 50.3733 39.2932 50.32V49.6C39.2932 49.5413 39.3119 49.4933 39.3492 49.456C39.3865 49.4187 39.4319 49.4 39.4852 49.4H43.6772C43.7359 49.4 43.7839 49.4187 43.8212 49.456C43.8585 49.4933 43.8772 49.5413 43.8772 49.6V50.32C43.8772 50.3733 43.8585 50.4187 43.8212 50.456C43.7839 50.4933 43.7359 50.512 43.6772 50.512H42.2292V54.8C42.2292 54.8587 42.2105 54.9067 42.1732 54.944C42.1359 54.9813 42.0879 55 42.0292 55H41.1412ZM46.9347 55.08C46.4654 55.08 46.0547 55.0027 45.7027 54.848C45.3507 54.688 45.0787 54.4453 44.8867 54.12C44.6947 53.7893 44.5987 53.3707 44.5987 52.864V49.6C44.5987 49.5413 44.6174 49.4933 44.6547 49.456C44.692 49.4187 44.74 49.4 44.7987 49.4H45.6707C45.7294 49.4 45.7774 49.4187 45.8147 49.456C45.852 49.4933 45.8707 49.5413 45.8707 49.6V52.856C45.8707 53.2507 45.964 53.544 46.1507 53.736C46.3374 53.928 46.5987 54.024 46.9347 54.024C47.2654 54.024 47.524 53.928 47.7107 53.736C47.8974 53.544 47.9907 53.2507 47.9907 52.856V49.6C47.9907 49.5413 48.0094 49.4933 48.0467 49.456C48.0894 49.4187 48.1374 49.4 48.1907 49.4H49.0707C49.124 49.4 49.1694 49.4187 49.2067 49.456C49.244 49.4933 49.2627 49.5413 49.2627 49.6V52.864C49.2627 53.3707 49.1667 53.7893 48.9747 54.12C48.7827 54.4453 48.5134 54.688 48.1667 54.848C47.82 55.0027 47.4094 55.08 46.9347 55.08ZM50.5967 55C50.538 55 50.49 54.9813 50.4527 54.944C50.4154 54.9067 50.3967 54.8587 50.3967 54.8V49.6C50.3967 49.5413 50.4154 49.4933 50.4527 49.456C50.49 49.4187 50.538 49.4 50.5967 49.4H52.6047C53.138 49.4 53.5834 49.4853 53.9407 49.656C54.298 49.8213 54.57 50.0667 54.7567 50.392C54.9487 50.712 55.05 51.1093 55.0607 51.584C55.066 51.8187 55.0687 52.024 55.0687 52.2C55.0687 52.376 55.066 52.5787 55.0607 52.808C55.0447 53.304 54.946 53.7147 54.7647 54.04C54.5834 54.3653 54.3167 54.608 53.9647 54.768C53.6127 54.9227 53.1727 55 52.6447 55H50.5967ZM51.6687 53.968H52.6047C52.8714 53.968 53.09 53.928 53.2607 53.848C53.4314 53.768 53.5567 53.6427 53.6367 53.472C53.722 53.296 53.7674 53.0693 53.7727 52.792C53.778 52.6373 53.7807 52.4987 53.7807 52.376C53.786 52.2533 53.786 52.1307 53.7807 52.008C53.7807 51.8853 53.778 51.7493 53.7727 51.6C53.762 51.2 53.658 50.9067 53.4607 50.72C53.2687 50.528 52.97 50.432 52.5647 50.432H51.6687V53.968ZM56.2686 55C56.2099 55 56.1619 54.9813 56.1246 54.944C56.0872 54.9067 56.0686 54.8587 56.0686 54.8V49.6C56.0686 49.5413 56.0872 49.4933 56.1246 49.456C56.1619 49.4187 56.2099 49.4 56.2686 49.4H57.1726C57.2312 49.4 57.2792 49.4187 57.3166 49.456C57.3539 49.4933 57.3726 49.5413 57.3726 49.6V54.8C57.3726 54.8587 57.3539 54.9067 57.3166 54.944C57.2792 54.9813 57.2312 55 57.1726 55H56.2686ZM60.7769 55.08C60.2916 55.08 59.8729 55 59.5209 54.84C59.1689 54.68 58.8943 54.44 58.6969 54.12C58.4996 53.7947 58.3929 53.3867 58.3769 52.896C58.3716 52.6667 58.3689 52.44 58.3689 52.216C58.3689 51.9867 58.3716 51.7547 58.3769 51.52C58.3929 51.04 58.4996 50.6373 58.6969 50.312C58.8996 49.9813 59.1769 49.7333 59.5289 49.568C59.8863 49.4027 60.3023 49.32 60.7769 49.32C61.2463 49.32 61.6569 49.4027 62.0089 49.568C62.3663 49.7333 62.6463 49.9813 62.8489 50.312C63.0516 50.6373 63.1583 51.04 63.1689 51.52C63.1796 51.7547 63.1849 51.9867 63.1849 52.216C63.1849 52.44 63.1796 52.6667 63.1689 52.896C63.1529 53.3867 63.0463 53.7947 62.8489 54.12C62.6516 54.44 62.3769 54.68 62.0249 54.84C61.6729 55 61.2569 55.08 60.7769 55.08ZM60.7769 54.048C61.0863 54.048 61.3396 53.9547 61.5369 53.768C61.7396 53.576 61.8463 53.272 61.8569 52.856C61.8676 52.6213 61.8729 52.4027 61.8729 52.2C61.8729 51.992 61.8676 51.7733 61.8569 51.544C61.8516 51.2667 61.8009 51.04 61.7049 50.864C61.6089 50.688 61.4809 50.56 61.3209 50.48C61.1663 50.3947 60.9849 50.352 60.7769 50.352C60.5689 50.352 60.3849 50.3947 60.2249 50.48C60.0649 50.56 59.9369 50.688 59.8409 50.864C59.7503 51.04 59.6996 51.2667 59.6889 51.544C59.6836 51.7733 59.6809 51.992 59.6809 52.2C59.6809 52.4027 59.6836 52.6213 59.6889 52.856C59.7049 53.272 59.8116 53.576 60.0089 53.768C60.2063 53.9547 60.4623 54.048 60.7769 54.048Z" fill="#231F20"/>
</g>
<defs>
<clipPath id="clip0_97_910">
<rect width="64" height="56" fill="white"/>
</clipPath>
</defs>
</svg>
